<svg width="57" height="56" viewBox="0 0 57 56" fill="none" xmlns="http://www.w3.org/2000/svg">
<path d="M28.5 4.66669C15.6433 4.66669 5.16663 15.1434 5.16663 28C5.16663 40.8567 15.6433 51.3334 28.5 51.3334C41.3566 51.3334 51.8333 40.8567 51.8333 28C51.8333 15.1434 41.3566 4.66669 28.5 4.66669ZM37.8333 29.75H30.25V37.3334C30.25 38.29 29.4566 39.0834 28.5 39.0834C27.5433 39.0834 26.75 38.29 26.75 37.3334V29.75H19.1666C18.21 29.75 17.4166 28.9567 17.4166 28C17.4166 27.0434 18.21 26.25 19.1666 26.25H26.75V18.6667C26.75 17.71 27.5433 16.9167 28.5 16.9167C29.4566 16.9167 30.25 17.71 30.25 18.6667V26.25H37.8333C38.79 26.25 39.5833 27.0434 39.5833 28C39.5833 28.9567 38.79 29.75 37.8333 29.75Z" fill="#50B378"/>
</svg>
