<svg width="47" height="47" viewBox="0 0 47 47" fill="none" xmlns="http://www.w3.org/2000/svg">
<path d="M13.6121 20.9043H9.72297C5.01708 20.9043 2.43079 18.318 2.43079 13.6121V9.72297C2.43079 5.01708 5.01708 2.43079 9.72297 2.43079H13.6121C18.318 2.43079 20.9043 5.01708 20.9043 9.72297V13.6121C20.9043 18.318 18.318 20.9043 13.6121 20.9043ZM9.72297 5.34766C6.65053 5.34766 5.34766 6.65053 5.34766 9.72297V13.6121C5.34766 16.6846 6.65053 17.9875 9.72297 17.9875H13.6121C16.6846 17.9875 17.9875 16.6846 17.9875 13.6121V9.72297C17.9875 6.65053 16.6846 5.34766 13.6121 5.34766H9.72297Z" fill="#7D7D7D"/>
<path d="M36.9471 20.9043H33.0579C28.352 20.9043 25.7657 18.318 25.7657 13.6121V9.72297C25.7657 5.01708 28.352 2.43079 33.0579 2.43079H36.9471C41.653 2.43079 44.2393 5.01708 44.2393 9.72297V13.6121C44.2393 18.318 41.653 20.9043 36.9471 20.9043ZM33.0579 5.34766C29.9855 5.34766 28.6826 6.65053 28.6826 9.72297V13.6121C28.6826 16.6846 29.9855 17.9875 33.0579 17.9875H36.9471C40.0195 17.9875 41.3224 16.6846 41.3224 13.6121V9.72297C41.3224 6.65053 40.0195 5.34766 36.9471 5.34766H33.0579Z" fill="#7D7D7D"/>
<path d="M36.9471 44.2393H33.0579C28.352 44.2393 25.7657 41.653 25.7657 36.9471V33.0579C25.7657 28.352 28.352 25.7657 33.0579 25.7657H36.9471C41.653 25.7657 44.2393 28.352 44.2393 33.0579V36.9471C44.2393 41.653 41.653 44.2393 36.9471 44.2393ZM33.0579 28.6826C29.9855 28.6826 28.6826 29.9855 28.6826 33.0579V36.9471C28.6826 40.0195 29.9855 41.3224 33.0579 41.3224H36.9471C40.0195 41.3224 41.3224 40.0195 41.3224 36.9471V33.0579C41.3224 29.9855 40.0195 28.6826 36.9471 28.6826H33.0579Z" fill="#7D7D7D"/>
<path d="M13.6121 44.2393H9.72297C5.01708 44.2393 2.43079 41.653 2.43079 36.9471V33.0579C2.43079 28.352 5.01708 25.7657 9.72297 25.7657H13.6121C18.318 25.7657 20.9043 28.352 20.9043 33.0579V36.9471C20.9043 41.653 18.318 44.2393 13.6121 44.2393ZM9.72297 28.6826C6.65053 28.6826 5.34766 29.9855 5.34766 33.0579V36.9471C5.34766 40.0195 6.65053 41.3224 9.72297 41.3224H13.6121C16.6846 41.3224 17.9875 40.0195 17.9875 36.9471V33.0579C17.9875 29.9855 16.6846 28.6826 13.6121 28.6826H9.72297Z" fill="#7D7D7D"/>
</svg>
